PathFileType	4	(X/Y/Z)	C:\Users\Willi\Documents\Github\OpenSimMatlabBasic\ExampleData\Trials\dynamic04\marker_experimental.trc
DataRate	CameraRate	NumFrames	NumMarkers	Units	OrigDataRate	OrigDataStartFrame	OrigNumFrames
150.000000	150.000000	2	179	mm	150.000000	91	366
Frame#	Time	LFHD			LBHD			RFHD			RBHD			C7			T10			CLAV			STRN			RBAK			LSHO			LUPA			LELB			LFRA			LWRB			LWRA			LFIN			RSHO			RUPA			RELB			RFRA			RWRB			RWRA			RFIN			SACR			LASI			LT1			LT2			LT3			LS1			LS2			LS3			LHEE			LTOE			RT1			RT2			RT3			RS1			RS2			RS3			RHEE			RTOE			SACO			SACA			SACL			SACP			RASI			RM5D			LM5D			LKNE			RKNE			LANK			RANK			LKJC			RKJC			LAJC			RAJC			LTHI			RTHI			LTIB			RTIB			P_ForcePlate1			P_ForcePlate2			P_ForcePlate3			funktRKJC			funktLKJC			funktRHIP			funktLHIP			LHJC			RHJC			LKNEshank			RKNEshank			LKJCshank			RKJCshank			LHF			COP_FP1			VECTIP_FP1			RawCentreFP1			COP_FP2			VECTIP_FP2			RawCentreFP2			COP_FP3			VECTIP_FP3			RawCentreFP3			LPelvisAngles			RPelvisAngles			LFootProgressAngles			RFootProgressAngles			LHipAngles			RHipAngles			LKneeAngles			RKneeAngles			LAnkleAngles			RAnkleAngles			LFFootAngles			RFFootAngles			LAbsAnkleAngle			RAbsAnkleAngle			RNeckAngles			LNeckAngles			RSpineAngles			LSpineAngles			LShoulderAngles			LElbowAngles			LWristAngles			RShoulderAngles			RElbowAngles			RWristAngles			RThoraxAngles			LThoraxAngles			RHeadAngles			LHeadAngles			LHipPower			LKneePower			LAnklePower			RHipPower			RKneePower			RAnklePower			LWaistPower			RWaistPower			LNeckPower			RNeckPower			LShoulderPower			RShoulderPower			LElbowPower			RElbowPower			LWristPower			RWristPower			F_ForcePlate1			F_ForcePlate2			F_ForcePlate3			LHipForce			RHipForce			LKneeForce			RKneeForce			LAnkleForce			RAnkleForce			LNormalisedGRF			RNormalisedGRF			LGroundReactionForce			RGroundReactionForce			LGRF			RGRF			LWaistForce			RWaistForce			LNeckForce			RNeckForce			LShoulderForce			RShoulderForce			LElbowForce			RElbowForce			LWristForce			RWristForce			Force_FP1			RawForceFP1			Force_FP2			RawForceFP2			Force_FP3			RawForceFP3			LHipMoment			RHipMoment			LKneeMoment			RKneeMoment			LAnkleMoment			RAnkleMoment			LGroundReactionMoment			RGroundReactionMoment			LWaistMoment			RWaistMoment			LNeckMoment			RNeckMoment			LShoulderMoment			RShoulderMoment			LElbowMoment			RElbowMoment			LWristMoment			RWristMoment			RawMomentFP1			RawMomentFP2			RawMomentFP3			
		X1	Y1	Z1	X2	Y2	Z2	X3	Y3	Z3	X4	Y4	Z4	X5	Y5	Z5	X6	Y6	Z6	X7	Y7	Z7	X8	Y8	Z8	X9	Y9	Z9	X10	Y10	Z10	X11	Y11	Z11	X12	Y12	Z12	X13	Y13	Z13	X14	Y14	Z14	X15	Y15	Z15	X16	Y16	Z16	X17	Y17	Z17	X18	Y18	Z18	X19	Y19	Z19	X20	Y20	Z20	X21	Y21	Z21	X22	Y22	Z22	X23	Y23	Z23	X24	Y24	Z24	X25	Y25	Z25	X26	Y26	Z26	X27	Y27	Z27	X28	Y28	Z28	X29	Y29	Z29	X30	Y30	Z30	X31	Y31	Z31	X32	Y32	Z32	X33	Y33	Z33	X34	Y34	Z34	X35	Y35	Z35	X36	Y36	Z36	X37	Y37	Z37	X38	Y38	Z38	X39	Y39	Z39	X40	Y40	Z40	X41	Y41	Z41	X42	Y42	Z42	X43	Y43	Z43	X44	Y44	Z44	X45	Y45	Z45	X46	Y46	Z46	X47	Y47	Z47	X48	Y48	Z48	X49	Y49	Z49	X50	Y50	Z50	X51	Y51	Z51	X52	Y52	Z52	X53	Y53	Z53	X54	Y54	Z54	X55	Y55	Z55	X56	Y56	Z56	X57	Y57	Z57	X58	Y58	Z58	X59	Y59	Z59	X60	Y60	Z60	X61	Y61	Z61	X62	Y62	Z62	X63	Y63	Z63	X64	Y64	Z64	X65	Y65	Z65	X66	Y66	Z66	X67	Y67	Z67	X68	Y68	Z68	X69	Y69	Z69	X70	Y70	Z70	X71	Y71	Z71	X72	Y72	Z72	X73	Y73	Z73	X74	Y74	Z74	X75	Y75	Z75	X76	Y76	Z76	X77	Y77	Z77	X78	Y78	Z78	X79	Y79	Z79	X80	Y80	Z80	X81	Y81	Z81	X82	Y82	Z82	X83	Y83	Z83	X84	Y84	Z84	X85	Y85	Z85	X86	Y86	Z86	X87	Y87	Z87	X88	Y88	Z88	X89	Y89	Z89	X90	Y90	Z90	X91	Y91	Z91	X92	Y92	Z92	X93	Y93	Z93	X94	Y94	Z94	X95	Y95	Z95	X96	Y96	Z96	X97	Y97	Z97	X98	Y98	Z98	X99	Y99	Z99	X100	Y100	Z100	X101	Y101	Z101	X102	Y102	Z102	X103	Y103	Z103	X104	Y104	Z104	X105	Y105	Z105	X106	Y106	Z106	X107	Y107	Z107	X108	Y108	Z108	X109	Y109	Z109	X110	Y110	Z110	X111	Y111	Z111	X112	Y112	Z112	X113	Y113	Z113	X114	Y114	Z114	X115	Y115	Z115	X116	Y116	Z116	X117	Y117	Z117	X118	Y118	Z118	X119	Y119	Z119	X120	Y120	Z120	X121	Y121	Z121	X122	Y122	Z122	X123	Y123	Z123	X124	Y124	Z124	X125	Y125	Z125	X126	Y126	Z126	X127	Y127	Z127	X128	Y128	Z128	X129	Y129	Z129	X130	Y130	Z130	X131	Y131	Z131	X132	Y132	Z132	X133	Y133	Z133	X134	Y134	Z134	X135	Y135	Z135	X136	Y136	Z136	X137	Y137	Z137	X138	Y138	Z138	X139	Y139	Z139	X140	Y140	Z140	X141	Y141	Z141	X142	Y142	Z142	X143	Y143	Z143	X144	Y144	Z144	X145	Y145	Z145	X146	Y146	Z146	X147	Y147	Z147	X148	Y148	Z148	X149	Y149	Z149	X150	Y150	Z150	X151	Y151	Z151	X152	Y152	Z152	X153	Y153	Z153	X154	Y154	Z154	X155	Y155	Z155	X156	Y156	Z156	X157	Y157	Z157	X158	Y158	Z158	X159	Y159	Z159	X160	Y160	Z160	X161	Y161	Z161	X162	Y162	Z162	X163	Y163	Z163	X164	Y164	Z164	X165	Y165	Z165	X166	Y166	Z166	X167	Y167	Z167	X168	Y168	Z168	X169	Y169	Z169	X170	Y170	Z170	X171	Y171	Z171	X172	Y172	Z172	X173	Y173	Z173	X174	Y174	Z174	X175	Y175	Z175	X176	Y176	Z176	X177	Y177	Z177	X178	Y178	Z178	X179	Y179	Z179	

92	0.6066666666666667	-531.930908203125	1254.468994140625	241.6912994384764	-659.4595947265625	1276.339233398438	223.6489410400389	-521.8746337890625	1257.234741210938	355.3583068847655	-651.6900634765625	1291.177490234375	390.3091430664061	-729.753662109375	1137.277099609375	321.7931213378905	-764.4334106445312	988.2997436523438	327.3922424316405	-621.6593627929688	1087.2333984375	303.7469482421874	-595.9890747070312	1033.756958007812	300.425323486328	-749.1350708007812	1058.756713867188	415.0472412109373	-707.5562133789062	1104.168579101562	178.8633728027342	-774.338623046875	915.0681762695312	149.6066741943358	-782.878173828125	851.9421997070312	138.7154235839842	-789.8026123046875	778.732177734375	125.3659057617186	-777.8665771484375	651.2191162109375	116.4684295654295	-709.3777465820312	655.5672607421875	96.44955444335925	-726.9217529296875	601.4082641601562	68.95527648925768	-673.4065551757812	1112.224731445312	449.1113891601561	-678.3951416015626	1007.534973144531	502.9257812499999	-666.4306030273439	856.2100830078125	547.3800048828124	-600.9178466796876	718.88330078125	561.0447387695311	-577.1900024414064	681.0433959960938	565.3020629882811	-516.4982299804689	718.6957397460938	550.3607788085936	-488.1026306152344	665.0816040039062	582.3001098632811	-756.549560546875	786.8119506835938	306.8096313476561	-625.6919555664062	756.2546997070312	193.6537933349608	-589.9351806640625	579.3720092773438	148.2393188476561	-585.4124145507812	457.8297424316406	166.3188171386718	-532.6819458007812	495.6146545410156	158.8278045654296	-549.4281616210938	262.9602355957031	156.9031677246093	-636.7153930664062	180.5815734863281	186.1751403808593	-494.4938354492188	182.5797576904297	162.9002227783203	-585.5895385742188	79.56221008300783	239.8631896972655	-441.4010009765625	71.50634765625001	195.2833404541015	-660.6616821289062	536.7531127929688	429.2643432617186	-720.168212890625	437.593505859375	412.6988220214843	-668.6509399414062	436.0341186523438	408.6686096191406	-767.9268188476562	232.9045562744141	409.9365844726561	-874.0406494140625	171.0872955322266	392.1844177246093	-732.5654296875	143.1145629882813	390.2769470214843	-859.6347045898438	56.53831100463869	322.6632080078124	-706.9627075195312	46.42091751098635	359.5584716796874	-720.5863647460938	777.2763671875	310.9816284179686	-715.6558227539062	775.9944458007812	310.7671508789061	-720.7537841796875	777.484375	305.8896179199217	-707.6970825195312	826.5847778320312	312.5720825195311	-618.258544921875	747.0196533203125	419.7301025390624	-729.23974609375	28.11699867248538	389.2764892578124	-457.8249206542969	51.54317474365235	165.9034118652343	-522.8714599609375	426.5663757324219	171.2562866210937	-688.5228881835938	382.6341247558594	396.3670349121093	-556.9086303710938	83.58396911621095	192.4561157226562	-821.1690673828125	67.34800720214847	369.410430908203	-516.8485107421875	423.0469665527344	223.033721923828	-701.0411987304688	382.6716003417969	345.1058349609374	-537.6044311523438	93.1746292114258	225.4224700927734	-802.421630859375	71.59420013427736	334.9313659667968	-603.3333740234375	563.12939453125	146.0355377197264	-662.6192016601562	529.7208862304688	440.4324951171874	-573.46044921875	245.5354309082031	144.0419311523437	-794.3331298828125	222.8345336914063	422.0205078124999	256.7200012207031	0.07899999618532701	396.4200134277344	-254.2699890136719	-0.2560999989509441	231.3000030517578	-724.6953125	2.189533783666723e-14	357.5780029296874	0	0	0	0	0	0	0	0	0	0	0	0	-669.5604858398438	692.9166870117188	254.6662445068358	-666.8071899414062	688.2294311523438	356.5014343261718	-517.0435791015625	435.1463928222656	174.6097106933593	-694.681884765625	385.3268432617188	396.4129638671874	-512.3477172851562	431.2676696777344	226.4987030029296	-698.31787109375	383.7564392089844	343.7949218749999	-0.2413736879825592	1.574179530143738	0.1501627713441848	256.7200012207031	0.07899999618532701	396.4200134277344	256.7200012207031	0.07899999618532701	396.4200134277344	256.7200012207031	0.07899999618532701	396.4200134277344	-254.2699890136719	-0.2560999989509441	231.3000030517578	-254.3016357421875	-0.508408188819871	231.3088226318359	-254.2699890136719	-0.2560999989509441	231.3000030517578	-724.6953125	2.189533783666723e-14	357.5780029296874	-702.9190673828125	254.0507965087891	359.2858886718749	-254.2699890136719	-0.2560999989509441	231.3000030517578	-14.64966297149658	-2.41197395324707	1.787369608879088	-14.64966297149658	2.41197395324707	-1.787369608879091	-7.071456432342529	-15.2849235534668	-1.424822211265564	-6.942350387573242	-11.59687328338623	0.9615852832794187	-44.15326690673828	-3.364189863204956	-2.862561464309698	-8.25899600982666	11.53730297088623	0.007334263995288085	-33.50164413452148	-23.04344749450684	3.170675754547116	-11.40034103393555	-39.22153091430664	2.445954322814942	3.339466571807861	14.1011209487915	0.7057573199272151	-11.56977272033691	13.65616607666016	-2.288342714309695	7.951386796473769e-16	1.192708045940846e-15	5.44173013535031e-15	7.951386796473782e-16	-3.975693398236891e-16	-4.770832183763384e-15	-2.435718774795532	0	-2.982895201176461e-16	-15.85598564147949	0	-1.941798206316425e-15	-9.639153480529785	4.891465187072754	-2.955238103866579	-9.639153480529785	-4.891465187072754	2.955238103866576	11.57416439056396	-6.501128196716309	-4.314620018005369	11.57416439056396	6.501128196716309	4.314620018005373	18.28933143615723	-14.55303287506104	6.893726348876957	-36.28157043457031	3.155110287617058e-12	-5.238349589721148e-15	-9.293271064758301	98.56246948242188	6.269848346710198	3.652732610702512	-4.242348194122314	17.41802406311035	-45.14535903930664	-1.398648883342568e-12	-6.323850624031782e-15	-13.03679752349854	89.76995086669922	6.321633815765374	-2.548056602478027	9.229351043701172	0.6438823342323294	-2.548056602478027	-9.229351043701172	-0.6438823342323301	11.96232986450195	3.684200525283814	4.267182826995851	11.96232986450195	-3.684200525283814	-4.267182826995848	1.267811134034518e-33	0.1690685600042343	-1.035246354228189e-17	-6.260399189975614e-33	-0.8348535895347595	5.112003880902107e-17	2.047014733322374e-37	2.729790139710531e-05	-1.671514378470254e-21	4.219191615271332e-36	0.0005626489873975515	-3.445231407299555e-20	2.566662692188401e-34	0.0342276506125927	-2.09583913825228e-18	-3.807416626806371e-33	-0.50773686170578	3.108991612485529e-17	nan	nan	nan	nan	nan	nan	nan	nan	nan	nan	nan	nan	-1.13735063595548e-34	-0.0151671040803194	9.287172732148961e-19	-1.770650623645533e-34	-0.02361245639622211	1.445845957281993e-18	-8.579329598101235e-35	-0.01144093833863735	7.005554257827235e-19	6.947929116497717e-35	0.009265389293432236	-5.673414670527972e-19	-5.964323815229857e-36	-0.0007953705498948693	4.870239990324109e-20	3.183040895837989e-36	0.0004244734300300479	-2.599150137046981e-20	256.7200012207031	0.07899999618532701	396.4200134277344	-254.3016204833985	-0.508408188819871	231.3088226318359	-702.9190673828125	254.0507965087891	359.2858886718749	-0.2413737028837204	1.574179530143738	0.1501627713441848	-0.2597720623016357	-5.397284030914307	-0.3058278858661649	0.4908482134342194	0.7453944683074951	0.2252340465784073	-1.419975876808167	-6.201330661773682	0.4610935449600222	0.2498947381973267	-0.2013771831989288	0.004332356154918713	-6.863406181335449	0.2211015373468399	0.1979855000972739	0	0	0	0	0	0	0	0	0	0	0	0	0	0	0	0	0	0	nan	nan	nan	nan	nan	nan	nan	nan	nan	nan	nan	nan	-0.04637808352708815	0.4573242664337158	-0.1274113059043885	-0.1245225965976715	0.4592982828617096	0.0424822978675365	0.1069264337420464	0.175426110625267	-0.039589773863554	0.08087737858295441	0.2056253850460052	0.01294219307601452	-0.006863641552627083	0.0457225888967514	-0.02766164392232895	-0.01001393049955368	0.05318915471434593	0.03038859367370605	256.7200012207031	0.07899999618532701	396.4200134277344	0	0	0	-254.3016204833985	-0.508408188819871	231.3088226318359	-0.03163701295852661	-0.252308189868927	0.008816275745630276	-702.9190673828125	254.0507965087891	359.2858886718749	-0.03163701295852661	-0.252308189868927	0.008816275745630276	-112.4000701904297	-12.89011573791504	39.11666107177733	1.161467552185062	20.23196029663086	-28.57205772399902	101.3121871948242	0.7602999806404139	41.13892745971681	121.4481964111328	-0.9194451570510899	-55.39530181884764	8.412792205810547	0.8879543542861938	0.7877610921859751	-600.5552368164062	2.260608434677121	-42.19890213012702	nan	nan	nan	nan	nan	nan	nan	nan	nan	nan	nan	nan	nan	nan	nan	nan	nan	nan	9.377134323120115	-0.4260248541831959	18.9757022857666	-20.47490501403809	-1.618138432502746	5.716490745544431	12.59987926483154	0.1838967800140381	0.9704498052597061	9.395326614379883	0.02592836134135737	2.308406591415407	0.4728063344955443	-1.413713929084318e-16	0.887936294078827	-0.6281331181526186	-1.41423093950395e-15	1.578433275222778	0	0	0	-8.811169624328615	-13.5677375793457	14.46193504333496	-8.811169624328615	-13.5677375793457	14.46193504333496	
93	0.6133333333333334	-524.4530029296875	1253.148193359375	241.183135986328	-651.9254760742188	1275.207641601562	223.0145263671873	-514.5106201171875	1255.818237304688	354.854522705078	-644.314208984375	1289.900512695312	389.7015686035155	-722.4149780273438	1136.166259765625	321.1348571777342	-757.3660888671875	987.298828125	326.6862792968748	-614.3173217773438	1085.907592773438	303.0243835449218	-588.7088623046875	1032.379150390625	299.7646484374999	-741.6845703125	1057.70849609375	414.6640319824217	-700.3291015625	1102.824340820312	178.1759185791014	-767.931640625	913.9070434570312	149.6969451904295	-776.8677978515625	850.8814697265625	139.135543823242	-784.79931640625	777.80419921875	126.3223571777342	-774.5408935546875	650.1038818359375	118.3422927856444	-706.3271484375	653.4789428710938	97.402862548828	-724.9835205078125	599.5011596679688	70.41794586181628	-665.7532348632812	1111.11328125	448.3990173339843	-670.1996459960939	1006.485595703125	502.3214416503905	-657.3940429687501	855.2535400390625	547.2168579101561	-589.9794311523439	718.8285522460938	560.7612915039061	-565.6980590820314	681.3257446289062	564.8991088867186	-505.6473999023438	719.78564453125	549.5654907226561	-476.3507690429688	666.6934814453125	581.5274047851561	-749.4724731445312	785.4334106445312	305.5792846679686	-617.9256591796875	755.075439453125	193.203170776367	-583.2052612304688	576.9080200195312	148.3718719482421	-579.808349609375	455.3490905761719	166.9602050781249	-526.7053833007812	492.7371215820312	159.521987915039	-536.0389404296875	260.1616821289062	156.5057678222655	-619.1940307617188	173.3921966552734	184.6068267822265	-477.2018737792969	182.634765625	162.513931274414	-563.4656982421875	74.46285247802736	238.1507873535156	-418.4464721679688	73.91891479492189	194.8665466308593	-655.4662475585938	536.1212158203125	428.7764892578124	-715.6790161132812	437.4225463867188	412.1302185058593	-664.177734375	435.4605712890625	408.2806091308593	-765.8099365234375	233.1004638671875	409.469268798828	-872.5869750976562	172.5438385009766	391.264923095703	-731.4243774414062	142.8872375488282	390.1183471679686	-859.2235717773438	57.48463821411135	322.0643920898436	-706.8361206054688	46.38539505004885	359.4943237304686	-713.5868530273438	776.0164184570312	310.0001220703123	-708.6517333984375	774.7469482421875	309.8176269531248	-713.7236938476562	776.2166137695312	304.9069213867186	-700.8349609375	825.3602905273438	311.5971374511717	-611.8450317382812	746.1788940429688	419.4964599609374	-729.26123046875	28.145471572876	389.0979614257811	-433.6279296875	53.31108856201173	165.2439422607421	-517.5531005859375	423.6253051757812	172.2696075439452	-684.42333984375	382.1845092773438	395.9723815917968	-534.6910400390625	80.43338012695314	191.0272827148437	-820.8562622070312	68.14507293701175	368.9020690917968	-511.7716064453125	420.2614440917969	224.0849151611327	-696.7659912109375	382.2561340332031	344.6686096191405	-516.1524047851562	90.79783630371095	224.1981658935546	-801.8856811523438	72.11387634277345	334.5121765136718	-596.610595703125	560.8790283203125	146.2297821044921	-657.39501953125	528.8603515625	439.933868408203	-558.742431640625	241.2689514160156	143.7547302246093	-792.4236450195312	223.5369567871094	421.4573669433593	256.7200012207031	0.07899999618532701	396.4200134277344	-254.2699890136719	-0.2560999989509441	231.3000030517578	-722.7080078125	2.185792347171892e-14	356.9669799804686	0	0	0	0	0	0	0	0	0	0	0	0	-661.9998168945312	691.7084350585938	254.120147705078	-659.8564453125	687.175048828125	355.9769592285155	-512.5612182617188	433.6612854003906	175.4012908935546	-690.6507568359375	384.6022338867188	396.1062622070312	-508.0745849609375	429.7241821289062	227.3044128417968	-694.0411376953125	383.0007934570312	343.4727478027343	-0.2471422553062439	1.640374898910522	0.1537602394819258	256.7200012207031	0.07899999618532701	396.4200134277344	256.7200012207031	0.07899999618532701	396.4200134277344	256.7200012207031	0.07899999618532701	396.4200134277344	-254.2699890136719	-0.2560999989509441	231.3000030517578	-254.3016357421875	-0.508408188819871	231.3088226318359	-254.2699890136719	-0.2560999989509441	231.3000030517578	-722.7080078125	2.185792347171892e-14	356.9669799804686	-698.7294311523438	252.2700500488282	360.1710205078124	-254.2699890136719	-0.2560999989509441	231.3000030517578	-14.48990440368652	-2.052318811416626	1.795087456703184	-14.48990440368652	2.052318811416626	-1.795087456703188	-4.208499431610107	-14.72759532928467	-1.008030772209167	-7.313160419464111	-11.81124591827393	1.084100484848022	-43.43806838989258	-3.507893800735474	-2.815307855606084	-7.589829921722412	11.66637420654297	0.05818991735577419	-30.0609130859375	-22.99648857116699	2.940146923065183	-11.5657262802124	-39.32143020629883	2.452860832214356	3.433863639831543	14.23478126525879	0.7335922122001644	-11.87470626831055	13.72205066680908	-2.363873958587649	2.385416091881691e-15	1.242404236579867e-16	4.85469437477219e-15	3.347313790551296e-31	-3.975693398236889e-16	-2.733289135187244e-15	-2.36362624168396	0	-2.89460731125895e-16	-16.14987564086914	0	-1.97778935102182e-15	-9.61776065826416	4.947855472564697	-2.905494928359987	-9.61776065826416	-4.947855472564697	2.905494928359984	11.3204984664917	-6.867518424987793	-4.286108970642088	11.3204984664917	6.867518424987793	4.286108970642092	18.58271217346191	-14.76743602752686	6.662800788879398	-35.91464614868164	6.80638705119474e-13	-4.398275644849321e-15	-9.102431297302246	98.21348571777344	6.5750765800476	3.193005561828611	-4.239573955535888	17.61186981201172	-45.5289192199707	1.808145321836874e-12	-6.370823198785041e-15	-13.11952304840088	89.83469390869141	6.401202678680413	-2.642913579940796	9.225803375244141	0.6480306982994071	-2.642913579940796	-9.225803375244141	-0.6480306982994077	12.04267501831055	3.63390064239502	4.211172103881838	12.04267501831055	-3.63390064239502	-4.211172103881834	1.788015676500892e-33	0.2384402751922607	-1.460025599010081e-17	-7.307281867074124e-33	-0.9744603037834167	5.966848459622594e-17	-8.702932220380417e-36	-0.001160576823167503	7.106483458283431e-20	2.675362582131518e-35	0.003567721461877227	-2.184599334268631e-19	3.322136730803307e-34	0.04430225118994713	-2.712730505739539e-18	-3.630018255569111e-33	-0.4840799570083618	2.964134849408393e-17	nan	nan	nan	nan	nan	nan	nan	nan	nan	nan	nan	nan	-1.152677424670685e-34	-0.01537149399518967	9.412325459660893e-19	-1.728075279374314e-34	-0.02304469421505928	1.411080550390094e-18	-9.880895647850465e-35	-0.0131766377016902	8.068363592449618e-19	7.145455443892209e-35	0.009528799913823605	-5.834707157089826e-19	-6.955151414002446e-36	-0.0009275020565837622	5.679312123989459e-20	3.519872223029077e-36	0.0004693914670497179	-2.874193788347587e-20	256.7200012207031	0.07899999618532701	396.4200134277344	-254.3016204833985	-0.508408188819871	231.3088226318359	-698.7294311523438	252.2700347900391	360.1710205078124	-0.2471422404050827	1.640374898910522	0.1537602245807646	-0.2903484106063842	-5.334893703460693	-0.2798647284507749	0.5261768102645874	0.7772477865219116	0.2376799583435059	-1.415147542953491	-6.14809513092041	0.5018629431724549	0.2425590604543686	-0.2337182462215424	0.00727936998009686	-6.818027496337891	0.1923168301582337	0.245399594306945	0	0	0	0	0	0	0	0	0	0	0	0	0	0	0	0	0	0	nan	nan	nan	nan	nan	nan	nan	nan	nan	nan	nan	nan	-0.04915661737322806	0.4641324877738953	-0.1310237497091294	-0.128895029425621	0.4667703211307526	0.04565211758017536	0.109122134745121	0.1785672456026077	-0.04108560085296631	0.08141986280679703	0.2086037695407867	0.01372476480901241	-0.007332586217671629	0.04623474925756454	-0.02939805015921593	-0.009878273122012619	0.05371083319187164	0.03041893988847732	256.7200012207031	0.07899999618532701	396.4200134277344	0	0	0	-254.3016204833985	-0.508408188819871	231.3088226318359	-0.03163701295852661	-0.252308189868927	0.008816275745630276	-698.7294311523438	252.2700347900391	360.1710205078124	-0.03163701295852661	-0.252308189868927	0.008816275745630276	-137.2044067382812	-13.10826683044433	39.91289901733397	3.164492130279547	24.27568626403808	-50.61636352539062	117.6205368041992	1.089436769485477	46.54722595214845	134.6240844726562	0.1950755268335304	-62.81969833374022	7.207462310791016	1.170122385025024	0.8962076902389534	-611.5584106445312	2.639301061630247	-38.52241134643563	nan	nan	nan	nan	nan	nan	nan	nan	nan	nan	nan	nan	nan	nan	nan	nan	nan	nan	10.14775562286377	-0.4853455126285541	19.68631172180176	-21.65984535217285	-1.57745087146759	6.133671760559079	13.43311882019043	0.2011659145355225	1.105166912078859	9.293981552124023	0.03763630613684668	2.247488260269166	0.4660889506340026	-1.339580100836637e-16	1.009006023406982	-0.5845423936843874	1.797242438410854e-15	1.579810500144958	0	0	0	-8.811169624328615	-13.5677375793457	14.46193504333496	-8.811169624328615	-13.5677375793457	14.46193504333496	
